<svg id="Layer_1" data-name="Layer 1" xmlns="http://www.w3.org/2000/svg" viewBox="0 0 348.86 98.45"><title>flyingDolly_black_no_isologo</title><path d="M77.65,19.35a2.46,2.46,0,0,1,1,1.33,1.87,1.87,0,0,1-.6,1.56c-1.53,1.83-3.22,4.09-5,6.76s-3.72,5.54-5.68,8.61-3.89,6.23-5.82,9.47-3.74,6.36-5.42,9.35-3.21,5.77-4.57,8.32-2.44,4.67-3.23,6.35h.07a27.55,27.55,0,0,0,3.23-3.34c1.36-1.59,2.84-3.37,4.42-5.35s3.22-4.06,4.9-6.24,3.24-4.21,4.68-6.12l3.71-4.94c1-1.38,1.73-2.28,2.08-2.67l.63-.63,1.12-1.12a5.77,5.77,0,0,1,1-.85q.48-.3.48.15a15.31,15.31,0,0,1-1.38,2.78q-1.36,2.49-3.45,6t-4.6,7.64c-1.69,2.75-3.29,5.34-4.83,7.76s-2.89,4.53-4.08,6.31a28.44,28.44,0,0,1-2.45,3.35c-.35.34-.7.65-1,.92a5.38,5.38,0,0,1-1.26.71,9.28,9.28,0,0,1-1.79.48,15,15,0,0,1-2.59.19,4.83,4.83,0,0,1-2.49-.63,5.48,5.48,0,0,1-1.78-1.64,8,8,0,0,1-1.45-4.49,12.57,12.57,0,0,1,1.07-3.45c.72-1.76,1.68-3.91,2.86-6.46s2.55-5.37,4.09-8.47,3.14-6.21,4.82-9.35,3.37-6.2,5.05-9.17,3.26-5.61,4.72-7.91,2.73-4.17,3.82-5.6,1.91-2.18,2.45-2.23a6,6,0,0,1,1.89.18,17.32,17.32,0,0,1,4,1.56A7.68,7.68,0,0,1,77.65,19.35Z" transform="translate(0.02 -3.38)"/><path d="M102.82,41a2.78,2.78,0,0,1,1.08,1.74,2.51,2.51,0,0,1-.93,2,39.68,39.68,0,0,0-2.75,3.56q-1.86,2.61-4.34,6.24t-5.39,8.09q-2.89,4.45-5.75,9t-5.53,9q-2.68,4.45-4.72,8.13c-1.35,2.45-2.43,4.56-3.23,6.31a11.14,11.14,0,0,0-1.19,3.6,4.83,4.83,0,0,1-.33,2.38,1.5,1.5,0,0,1-1.45.74,8.3,8.3,0,0,1-4.31-1,3.78,3.78,0,0,1-2-3.49,12,12,0,0,1,.93-3.26q.93-2.46,2.52-6c1.06-2.36,2.32-5,3.75-7.91s2.95-5.9,4.53-9a29.23,29.23,0,0,1-3.78,3.6,5.42,5.42,0,0,1-3.12,1.38,7,7,0,0,1-2.75-.63,13.54,13.54,0,0,1-2.79-1.6,10.34,10.34,0,0,1-2.19-2.19,4.25,4.25,0,0,1-.89-2.49,19.86,19.86,0,0,1,1-5.72,62.17,62.17,0,0,1,2.52-6.75q1.51-3.49,3.42-6.91c1.27-2.28,2.5-4.31,3.71-6.08a43.34,43.34,0,0,1,3.27-4.35c1-1.11,1.69-1.67,2.18-1.67a8.26,8.26,0,0,1,2.42.37,14.68,14.68,0,0,1,2.23.86,15.05,15.05,0,0,1,1.74,1,8.17,8.17,0,0,1,1,.71c.64.69.9,1.23.78,1.63a3.56,3.56,0,0,1-.93,1.34c-.39.44-1,1.21-1.85,2.3s-1.77,2.39-2.79,3.9-2.07,3.18-3.15,5-2.11,3.69-3,5.57A58.77,58.77,0,0,0,68.29,66,23.38,23.38,0,0,0,67,71a11.7,11.7,0,0,0,2.64-2A50.33,50.33,0,0,0,73,65.29c1.24-1.46,2.53-3,3.87-4.72s2.64-3.36,3.89-5,2.44-3.23,3.53-4.71,2-2.75,2.75-3.79q2.44-4.17,4.23-6.61c1.19-1.63,2-2.45,2.45-2.45a9.45,9.45,0,0,1,2.3.38c.94.24,1.87.53,2.79.85s1.75.66,2.52,1A5.67,5.67,0,0,1,102.82,41Z" transform="translate(0.02 -3.38)"/><path d="M128.29,42.44l.59-.63L130,40.69a6.25,6.25,0,0,1,1-.85q.48-.3.48.15a15.14,15.14,0,0,1-1.34,2.78q-1.33,2.49-3.45,6l-4.6,7.64q-2.49,4.13-4.83,7.76t-4.12,6.31a28.44,28.44,0,0,1-2.45,3.35c-.45.44-.84.81-1.19,1.11a4.69,4.69,0,0,1-1.15.71,6.45,6.45,0,0,1-1.56.37,20.36,20.36,0,0,1-2.34.11,8.68,8.68,0,0,1-3.41-.67,8.48,8.48,0,0,1-2.68-1.78,7.88,7.88,0,0,1-1.7-2.49,7.05,7.05,0,0,1-.6-2.86,13.69,13.69,0,0,1,1-3.93c.67-1.83,1.53-3.88,2.6-6.17s2.23-4.62,3.49-7,2.5-4.59,3.71-6.58a55.91,55.91,0,0,1,3.31-4.89c1-1.29,1.71-1.94,2.15-1.94a7.3,7.3,0,0,1,1.9.34,19.08,19.08,0,0,1,2.3.82,22,22,0,0,1,2.15,1,7.36,7.36,0,0,1,1.52,1.08,2.49,2.49,0,0,1,1,1.86,3.19,3.19,0,0,1-1,1.78,19.36,19.36,0,0,0-1.89,2.53c-.87,1.28-1.84,2.79-2.93,4.52s-2.21,3.6-3.34,5.61-2.21,3.92-3.2,5.75S107,66.58,106.34,68a14.61,14.61,0,0,0-1.11,3,39.67,39.67,0,0,0,3.23-3.38q2-2.34,4.42-5.31t4.9-6.24q2.52-3.26,4.68-6.12L126.17,45C127.25,43.73,127.93,42.83,128.29,42.44Zm-5.65-5.57a3.71,3.71,0,0,1-1.89-.52,5.65,5.65,0,0,1-1.63-1.41A7,7,0,0,1,118,32.86a7.8,7.8,0,0,1-.41-2.53,10.05,10.05,0,0,1,.49-2.93,14.74,14.74,0,0,1,1.22-2.93,11.06,11.06,0,0,1,1.64-2.26,2.49,2.49,0,0,1,1.7-.93,7.8,7.8,0,0,1,2.08.44,16.14,16.14,0,0,1,2.68,1.12,6.34,6.34,0,0,1,1.93,1.48,1,1,0,0,1,0,1.41.65.65,0,0,1-.18.15L128,27.4c-.59.77-1.21,1.62-1.86,2.56a30.53,30.53,0,0,0-1.7,2.79,5,5,0,0,0-.75,2.12,2.65,2.65,0,0,1,0,1.37,1.21,1.21,0,0,1-1,.63Z" transform="translate(0.02 -3.38)"/><path d="M169.12,42.44l.6-.63c.34-.37.7-.74,1.07-1.12a6.25,6.25,0,0,1,1-.85c.32-.2.49-.15.49.15a15.31,15.31,0,0,1-1.38,2.78c-.91,1.66-2.07,3.67-3.45,6s-2.92,4.9-4.6,7.64-3.3,5.34-4.83,7.76-2.9,4.53-4.08,6.31a28.44,28.44,0,0,1-2.45,3.35,8.46,8.46,0,0,1-1.6,1.26,5.91,5.91,0,0,1-1.49.63,5.8,5.8,0,0,1-1.44.18H145.4a16.74,16.74,0,0,1-3.31-.33,11.77,11.77,0,0,1-3-1,7.16,7.16,0,0,1-2.19-1.63,3.22,3.22,0,0,1-.86-2.16,10,10,0,0,1,.86-3.12c.56-1.43,1.26-3,2.07-4.82s1.71-3.6,2.68-5.46,1.87-3.53,2.71-5c-1.09,1.24-2.38,2.68-3.86,4.34l-4.57,5.13c-1.57,1.76-3.12,3.47-4.68,5.15s-3,3.2-4.3,4.54-2.44,2.41-3.38,3.22S122,76,121.71,76a6.41,6.41,0,0,1-1.67-.37,12,12,0,0,1-2.3-1,9.38,9.38,0,0,1-2-1.6,2.85,2.85,0,0,1-.89-2A14.23,14.23,0,0,1,116,66.86q1.11-3,2.78-6.72c1.12-2.5,2.37-5.08,3.75-7.76s2.71-5.11,4-7.31,2.38-4,3.37-5.46,1.69-2.15,2.08-2.15a6,6,0,0,1,2,.41,15.53,15.53,0,0,1,2.15,1A16.68,16.68,0,0,1,138,40.06a11.06,11.06,0,0,1,1.26,1,6.22,6.22,0,0,1,1.16,1.49c.22.44.06.92-.49,1.41a13.41,13.41,0,0,0-1.07,1.52c-.57.87-1.28,2-2.12,3.27L133.93,53c-1,1.63-2.06,3.28-3.05,4.93s-1.94,3.27-2.85,4.83-1.68,2.91-2.27,4.05c1.09-1.24,2.47-2.84,4.12-4.79s3.43-4,5.31-6.17,3.79-4.31,5.72-6.49,3.71-4.15,5.34-5.91,3.06-3.18,4.27-4.27,2-1.63,2.42-1.63a6.8,6.8,0,0,1,2,.37,19.54,19.54,0,0,1,2.23.89,15.7,15.7,0,0,1,2,1.12,9.38,9.38,0,0,1,1.26,1l.74.75a2.4,2.4,0,0,1,.56.81,1.56,1.56,0,0,1,0,1,2.84,2.84,0,0,1-.82,1.23,17,17,0,0,0-1.34,1.93l-2.45,4c-.94,1.59-2,3.35-3.08,5.31s-2.19,3.87-3.23,5.75-2,3.65-2.82,5.31-1.48,3-1.93,4a27.55,27.55,0,0,0,3.23-3.34q2-2.38,4.46-5.35c1.6-2,3.25-4.06,4.93-6.24s3.24-4.21,4.68-6.12l3.71-4.94C168.08,43.73,168.78,42.83,169.12,42.44Z" transform="translate(0.02 -3.38)"/><path d="M187.31,38.87q0-.81,1.56-.63a11.05,11.05,0,0,1,3.46,1.12,15.21,15.21,0,0,1,3.45,2.34,4.07,4.07,0,0,1,1.56,3,20.44,20.44,0,0,1-1.19,6.09,63.1,63.1,0,0,1-3.27,7.94q-2.08,4.32-4.94,9T181.74,77q-3.33,4.53-7,8.61a69.5,69.5,0,0,1-7.46,7.2,39.15,39.15,0,0,1-7.47,4.94,15.84,15.84,0,0,1-7,1.82,13.39,13.39,0,0,1-4.61-.67,8,8,0,0,1-2.78-1.63A5.57,5.57,0,0,1,144,95.17a6,6,0,0,1-.41-2,9.19,9.19,0,0,1,.3-2.45,6.73,6.73,0,0,1,.7-1.79,2.22,2.22,0,0,1,.71-.81c.2-.1.29,0,.29.37a5.71,5.71,0,0,0,.23,1.48,5.1,5.1,0,0,0,.66,1.49,4.38,4.38,0,0,0,1.16,1.15,2.91,2.91,0,0,0,1.67.48,10.24,10.24,0,0,0,5.08-1.71,36.18,36.18,0,0,0,6-4.67,77.68,77.68,0,0,0,6.42-6.91q3.27-3.93,6.35-8.39t5.75-9.13a94.17,94.17,0,0,0,4.61-9.14c-1,1.24-2,2.68-3.2,4.31s-2.42,3.29-3.71,5l-3.82,5c-1.27,1.63-2.44,3.1-3.53,4.38s-2,2.33-2.82,3.12-1.36,1.19-1.71,1.19a9,9,0,0,1-2.41-.45,14.34,14.34,0,0,1-3-1.26,11.71,11.71,0,0,1-2.6-1.93,3.42,3.42,0,0,1-1.11-2.45,18.13,18.13,0,0,1,1.19-6,51,51,0,0,1,3-6.91q1.86-3.53,4.08-6.94c1.49-2.28,2.92-4.29,4.31-6A41.59,41.59,0,0,1,172,39.83c1.14-1.09,1.95-1.63,2.45-1.63a9.81,9.81,0,0,1,3.26.66,33.87,33.87,0,0,1,3.61,1.56c1.16.6,2.23,1.22,3.23,1.86a19.29,19.29,0,0,1,2.15,1.56A23.8,23.8,0,0,0,187.31,38.87ZM166.6,68q2-1.94,4.71-4.94T176.77,57q2.74-3.12,5-5.83c1.53-1.8,2.72-3.18,3.56-4.12a9.07,9.07,0,0,1-2.15-.78,4.7,4.7,0,0,0-2.08-.55c-.3,0-.8.38-1.52,1.15a30.53,30.53,0,0,0-2.45,3q-1.38,1.89-3,4.31c-1.07,1.61-2.09,3.24-3.08,4.9s-1.9,3.26-2.71,4.82A27.42,27.42,0,0,0,166.6,68Z" transform="translate(0.02 -3.38)"/><path d="M242,17.71a7.35,7.35,0,0,1,3.08.78,13.71,13.71,0,0,1,3,1.93A12.36,12.36,0,0,1,250.43,23a4.71,4.71,0,0,1,.92,2.56,41.52,41.52,0,0,1-1.19,8.87,67.25,67.25,0,0,1-3.63,11.18,80.39,80.39,0,0,1-6.17,11.77,53.1,53.1,0,0,1-8.76,10.61,42.77,42.77,0,0,1-11.43,7.65,33.44,33.44,0,0,1-14.11,2.93,18.78,18.78,0,0,1-6.39-1,16.16,16.16,0,0,1-4.23-2.23,9.18,9.18,0,0,1-2.37-2.52,4.36,4.36,0,0,1-.75-1.93,7.19,7.19,0,0,1,.52-2.75c.35-.84.67-1.26,1-1.26s.37.39.37,1.19a2.63,2.63,0,0,0,.59,1.7A5.32,5.32,0,0,0,196.25,71a7.73,7.73,0,0,0,1.89.82,7.06,7.06,0,0,0,1.93.3,25.67,25.67,0,0,0,11.85-2.79,40.43,40.43,0,0,0,10-7.16,55.63,55.63,0,0,0,8-9.84,87.88,87.88,0,0,0,5.94-10.8,77,77,0,0,0,3.86-10.06,44,44,0,0,0,1.71-7.69,14.56,14.56,0,0,0-4.68,2.49,49,49,0,0,0-5.2,4.56c-1.78,1.79-3.56,3.74-5.34,5.87S222.64,41,221,43.14s-3.26,4.31-4.72,6.39-2.77,4-3.93,5.64-2.12,3.07-2.86,4.16A19.06,19.06,0,0,1,208,61.26c-.4.39-.8.84-1.22,1.33a2,2,0,0,1-1.53.75,4,4,0,0,1-1.56-.63,14.3,14.3,0,0,1-2.22-1.56,19.18,19.18,0,0,1-2-1.93,2.88,2.88,0,0,1-.89-1.75A13.36,13.36,0,0,1,200,53.91c.94-1.93,2.15-4.24,3.64-6.91s3.12-5.49,4.9-8.46,3.5-5.72,5.16-8.25,3.16-4.61,4.49-6.27,2.28-2.49,2.82-2.49a11.24,11.24,0,0,1,2.23.34,18.53,18.53,0,0,1,3,1,12.93,12.93,0,0,1,2.67,1.49,2.38,2.38,0,0,1,1.15,1.89c1.29-1.09,2.57-2.14,3.86-3.15s2.48-1.91,3.57-2.71,2-1.44,2.82-1.94A3.93,3.93,0,0,1,242,17.71Z" transform="translate(0.02 -3.38)"/><path d="M282.5,42.59a21.7,21.7,0,0,1,2.34-2.16A17.77,17.77,0,0,1,287,38.91c.57-.32.9-.37,1-.15s-.33.93-1.23,2.12l-2,2.49c-1.11,1.33-2.45,2.87-4,4.6s-3.2,3.38-4.94,5A29,29,0,0,1,271,56.76a52.64,52.64,0,0,1-3.94,6.57,50.55,50.55,0,0,1-4.93,6,30.51,30.51,0,0,1-5.54,4.6,13.09,13.09,0,0,1-5.71,2.16,7.14,7.14,0,0,1-2.34-.3,11,11,0,0,1-2.86-1.19,9.62,9.62,0,0,1-2.49-2A4.73,4.73,0,0,1,242,69.82a19.66,19.66,0,0,1,.52-7,38.19,38.19,0,0,1,2.52-7.2,49.74,49.74,0,0,1,3.79-6.76,56.83,56.83,0,0,1,4.3-5.71,28.4,28.4,0,0,1,4.13-4,7.17,7.17,0,0,1,3.22-1.67,9.66,9.66,0,0,1,2.57.29,34.23,34.23,0,0,1,3.56,1q1.82.6,3.45,1.26a11.64,11.64,0,0,1,2.23,1.12,4,4,0,0,1,1,1.44,1.24,1.24,0,0,1-.07,1.38,4.12,4.12,0,0,1,1,2.15,16.06,16.06,0,0,1-.59,4.31c.94-.65,1.86-1.35,2.78-2.12s1.77-1.51,2.56-2.23,1.5-1.38,2.12-2ZM250.8,71.17a15.91,15.91,0,0,0,3.52-2,38.39,38.39,0,0,0,4-3.31q2-1.89,3.93-4.08t3.49-4.34a6,6,0,0,1-3.38-2.16,7.64,7.64,0,0,1-1.44-3.49,45.91,45.91,0,0,0-3.83,5.05A58.93,58.93,0,0,0,254,62.11a37.46,37.46,0,0,0-2.15,5,20.91,20.91,0,0,0-1.06,4.06Zm16.7-18.11a7,7,0,0,0,1.12-.15,9.79,9.79,0,0,0,1.19-4.16,1.75,1.75,0,0,0-.9-1.52,2.54,2.54,0,0,0-1.56-.19,1.71,1.71,0,0,0-1.44,1,4.42,4.42,0,0,0-.49,2.08,4,4,0,0,0,.52,2,1.7,1.7,0,0,0,1.56.91Z" transform="translate(0.02 -3.38)"/><path d="M316.43,42.44l.6-.63c.34-.37.7-.74,1.07-1.12a6.25,6.25,0,0,1,1-.85c.32-.2.49-.15.49.15a15.31,15.31,0,0,1-1.38,2.78c-.91,1.66-2.07,3.67-3.45,6s-2.92,4.9-4.6,7.64-3.3,5.34-4.83,7.76-2.9,4.53-4.08,6.31a28.44,28.44,0,0,1-2.45,3.35c-.35.34-.7.65-1,.92a6.24,6.24,0,0,1-1.27.75,7.9,7.9,0,0,1-1.78.52,16.16,16.16,0,0,1-2.6.18,4.45,4.45,0,0,1-2.41-.67A6,6,0,0,1,288,73.86a7.84,7.84,0,0,1-1.08-2.19,7.48,7.48,0,0,1-.37-2.3,10,10,0,0,1,.63-2.41A43.91,43.91,0,0,1,289,62.54c-1.39,2.28-2.73,4.48-4,6.61s-2.51,4-3.6,5.75-2,3.13-2.82,4.27a19.92,19.92,0,0,1-1.63,2.15,12.51,12.51,0,0,1-1,.93,6.65,6.65,0,0,1-1.26.75,8,8,0,0,1-1.79.52,16.16,16.16,0,0,1-2.6.18A4.45,4.45,0,0,1,267.8,83,6.31,6.31,0,0,1,266,81.36a7.74,7.74,0,0,1-1.48-4.49,14.08,14.08,0,0,1,1.26-3.79c.84-2,2-4.41,3.34-7.31s3-6.11,4.83-9.65,3.71-7.12,5.64-10.73,3.87-7.13,5.83-10.54,3.76-6.47,5.42-9.14,3.09-4.82,4.31-6.46,2.09-2.47,2.63-2.52a6.08,6.08,0,0,1,1.9.18,19.83,19.83,0,0,1,2.15.67,14,14,0,0,1,1.93.89,9.44,9.44,0,0,1,1.3.86,2.5,2.5,0,0,1,1,1.33,2,2,0,0,1-.52,1.56q-2.31,2.82-5.35,7.28t-6.38,9.8q-3.35,5.34-6.76,11.06c-2.28,3.82-4.42,7.5-6.42,11.07s-3.83,6.84-5.46,9.83-2.9,5.44-3.79,7.32a39.17,39.17,0,0,0,3.57-3.94q2.37-2.9,5.27-6.68t6-8L291.93,52c1.78-2.45,3.29-4.56,4.53-6.31s2-2.86,2.38-3.3l.14-.08q2.53-4.81,5.09-9.39t4.79-8.13c1.48-2.37,2.8-4.31,3.94-5.79s2-2.25,2.52-2.3a6,6,0,0,1,1.89.18,20.72,20.72,0,0,1,2.16.67,15.31,15.31,0,0,1,1.93.89,9.44,9.44,0,0,1,1.3.86,2.5,2.5,0,0,1,1,1.33,1.91,1.91,0,0,1-.6,1.56A78.57,78.57,0,0,0,318,29c-1.78,2.67-3.71,5.54-5.64,8.61s-3.86,6.23-5.79,9.47-3.74,6.36-5.42,9.35-3.21,5.77-4.57,8.32-2.44,4.67-3.23,6.35a29.7,29.7,0,0,0,3.23-3.31q2-2.34,4.46-5.34c1.6-2,3.25-4.08,4.93-6.24s3.24-4.18,4.68-6.09,2.68-3.55,3.71-4.93S316.09,42.88,316.43,42.44Z" transform="translate(0.02 -3.38)"/><path d="M347.77,41a2.72,2.72,0,0,1,1.07,1.74,2.43,2.43,0,0,1-.92,2,39.68,39.68,0,0,0-2.75,3.56q-1.86,2.61-4.34,6.24t-5.39,8.09q-2.9,4.45-5.75,9t-5.53,9q-2.69,4.45-4.72,8.13c-1.36,2.45-2.44,4.56-3.23,6.31A11.14,11.14,0,0,0,315,98.7a4.83,4.83,0,0,1-.33,2.38,1.5,1.5,0,0,1-1.45.74,8.3,8.3,0,0,1-4.31-1,3.78,3.78,0,0,1-2-3.49,12,12,0,0,1,.93-3.26q.93-2.46,2.52-6c1.06-2.36,2.32-5,3.75-7.91s2.95-5.9,4.53-9a28.68,28.68,0,0,1-3.79,3.6,5.39,5.39,0,0,1-3.11,1.38,7,7,0,0,1-2.75-.63,13.54,13.54,0,0,1-2.79-1.6A10.34,10.34,0,0,1,304,71.72a4.25,4.25,0,0,1-.89-2.49,19.86,19.86,0,0,1,1-5.72,62.17,62.17,0,0,1,2.52-6.75q1.51-3.49,3.41-6.91c1.27-2.27,2.5-4.3,3.72-6.08a47.39,47.39,0,0,1,3.26-4.35c1-1.11,1.7-1.67,2.19-1.67a8.26,8.26,0,0,1,2.42.37,15.09,15.09,0,0,1,2.23.86,16.67,16.67,0,0,1,1.74,1,8.17,8.17,0,0,1,1,.71c.64.69.9,1.23.78,1.63a3.56,3.56,0,0,1-.93,1.34c-.39.44-1,1.21-1.86,2.3s-1.76,2.39-2.78,3.9-2.07,3.18-3.15,5-2.11,3.69-3.05,5.57A58.77,58.77,0,0,0,313.19,66a23.38,23.38,0,0,0-1.34,5,11.7,11.7,0,0,0,2.64-2,50.33,50.33,0,0,0,3.45-3.71c1.24-1.46,2.53-3,3.86-4.72s2.63-3.36,3.9-5,2.44-3.23,3.53-4.71,2-2.75,2.75-3.79q2.44-4.17,4.23-6.61c1.19-1.63,2-2.45,2.45-2.45a9.45,9.45,0,0,1,2.3.38c.94.24,1.87.53,2.79.85s1.75.66,2.52,1A5.67,5.67,0,0,1,347.77,41Z" transform="translate(0.02 -3.38)"/><path d="M46.86,31.09a3.67,3.67,0,0,1,2.3,1.29,26.16,26.16,0,0,1,2.66,3A32.76,32.76,0,0,1,54,38.55a7.08,7.08,0,0,1,.91,1.85,1.29,1.29,0,0,1-.42,1.06,1.68,1.68,0,0,1-1.11.41,2.09,2.09,0,0,1-1.26-.36,10.8,10.8,0,0,0-1.54-.82,15.67,15.67,0,0,0-2.4-.79,14.74,14.74,0,0,0-3.81-.27,30.86,30.86,0,0,0-4.69.6q-2.52.51-5.25,1.29-2.82,4.53-5.6,9.34T23.86,60c-1.45,2.86-2.62,5.43-3.5,7.68A14.07,14.07,0,0,0,19.1,72.8a1.77,1.77,0,0,1-.94,1.74,4.05,4.05,0,0,1-2,.62,4.39,4.39,0,0,1-1.78-.64,19.76,19.76,0,0,1-2.61-1.65A18,18,0,0,1,9.4,70.79a3.21,3.21,0,0,1-1.08-1.92A10.56,10.56,0,0,1,9,65.72q.68-2.07,1.82-4.78c.77-1.81,1.68-3.8,2.73-6s2.21-4.43,3.46-6.76c-2.47,1-4.53,1.94-6.16,2.7A14.83,14.83,0,0,1,7.93,52a3.51,3.51,0,0,1-1.6-.23,2.39,2.39,0,0,1-.9-.67,1.73,1.73,0,0,1-.36-.87c0-.3-.07-.56-.08-.79s.42-.71,1.29-1.3c1.14-.74,2.31-1.43,3.51-2.05Q12,45,14.9,43.55c1.94-.94,4-1.89,6.19-2.87,1.71-3.12,3.44-6.09,5.16-8.91s3.33-5.31,4.8-7.48a56.45,56.45,0,0,0-9.35,3.39A68,68,0,0,0,9.07,34.47,12.77,12.77,0,0,0,6.3,37a14.62,14.62,0,0,0-1.38,2.1c-.32.59-.55,1.06-.7,1.4a.76.76,0,0,1-.65.53c-.44,0-.89-.32-1.33-1A10.19,10.19,0,0,1,1.1,37.56a29.2,29.2,0,0,1-.78-2.92A16,16,0,0,1,0,32.15Q-.12,29.65,2.7,27a38.23,38.23,0,0,1,7.76-5.34,107.45,107.45,0,0,1,11.6-5.32q6.66-2.64,14.2-5T51.85,6.94C57.22,5.59,67.36,3.61,71,3.47a3.62,3.62,0,0,0,.46-.06,19.64,19.64,0,0,1,2.17,0,1.69,1.69,0,0,1,1.14.49,3,3,0,0,1,.68,1.31,10.54,10.54,0,0,1,.3,2.37,15.59,15.59,0,0,1-.52,4.9,16.49,16.49,0,0,1-1.49,3.64A9.05,9.05,0,0,1,72,18.4a2.72,2.72,0,0,1-1.3.8,1.54,1.54,0,0,1-1.44-.49l-.79-1.18a4,4,0,0,0-1.34-1.15c-.6-.34.25-1.38-3.69-.59S49.19,19.64,45,20.63a3.23,3.23,0,0,1,.77.56,4.89,4.89,0,0,1,1.1,1.49,1.61,1.61,0,0,1-.47,1.82,38.91,38.91,0,0,0-2.75,3.4Q42,30.09,40,33c1.64-.56,3.06-1,4.24-1.33A13.24,13.24,0,0,1,46.86,31.09Z" transform="translate(0.02 -3.38)"/></svg>